<svg width="23" height="18" viewBox="0 0 23 18" fill="none" xmlns="http://www.w3.org/2000/svg">
<path fill-rule="evenodd" clip-rule="evenodd" d="M9.19922 9.58236C9.19922 10.2174 8.68439 10.7323 8.04932 10.7323C7.41425 10.7323 6.89942 10.2174 6.89942 9.58236C6.89942 8.94729 7.41425 8.43247 8.04932 8.43247C8.68439 8.43247 9.19922 8.94729 9.19922 9.58236ZM14.9487 8.43247C14.3136 8.43247 13.7988 8.94729 13.7988 9.58236C13.7988 10.2174 14.3136 10.7323 14.9487 10.7323C15.5838 10.7323 16.0986 10.2174 16.0986 9.58236C16.0986 8.94729 15.5838 8.43247 14.9487 8.43247ZM22.0829 14.6515L15.6626 17.4985C15.2724 17.6719 14.828 17.6767 14.4342 17.5116C14.0404 17.3465 13.7321 17.0263 13.5823 16.6265L12.8051 14.5183C12.3758 14.5471 11.9405 14.5617 11.499 14.5624C11.0576 14.563 10.6222 14.5483 10.1929 14.5183L9.41578 16.6265C9.26568 17.0261 8.95743 17.3462 8.5637 17.5112C8.16998 17.6762 7.72564 17.6716 7.33543 17.4985L0.915159 14.6515C0.230799 14.3523 -0.136537 13.6018 0.0469854 12.8778L2.87478 1.72472C3.02728 1.132 3.51631 0.685856 4.1205 0.58824L7.57595 0.0199984C8.36516 -0.106938 9.12197 0.385443 9.32571 1.1584L9.6381 2.38879C10.2469 2.32938 10.8672 2.29967 11.499 2.29967C12.1308 2.29967 12.7505 2.32938 13.358 2.38879L13.6704 1.1584C13.8738 0.385162 14.6309 -0.107407 15.4202 0.0199984L18.8775 0.58824C19.4817 0.685856 19.9708 1.132 20.1233 1.72472L22.953 12.8768C23.1368 13.6016 22.7684 14.3529 22.0829 14.6515ZM21.4648 13.2505L18.6351 2.10802C18.6351 2.10802 18.6351 2.10802 18.6274 2.10802L15.172 1.53307C15.1669 1.53016 15.1607 1.53016 15.1557 1.53307L14.8845 2.60056C15.3636 2.69064 15.8428 2.79796 16.3056 2.92828C16.6834 3.02458 16.9287 3.38906 16.8757 3.77529C16.8228 4.16152 16.4884 4.44649 16.0986 4.43753C16.0286 4.43733 15.959 4.42766 15.8916 4.40878C14.46 4.02029 12.9824 3.82658 11.499 3.83287C10.0156 3.82626 8.53812 4.01966 7.1064 4.40782C6.84014 4.49014 6.55018 4.42146 6.34912 4.22847C6.14806 4.03548 6.06758 3.74857 6.13893 3.47917C6.21028 3.20976 6.42221 3.0003 6.69244 2.93212C7.15432 2.80179 7.62961 2.69447 8.11257 2.6044L7.84138 1.53307C7.84138 1.53307 7.84138 1.53307 7.82988 1.53307L4.3706 2.10131C4.36778 2.10054 4.3648 2.10054 4.36198 2.10131L1.53323 13.2553L7.9535 16.0985C7.96007 16.102 7.96801 16.102 7.97458 16.0985L8.62427 14.3468C7.97332 14.2472 7.32888 14.109 6.69436 13.9328C6.30157 13.8073 6.07843 13.3936 6.18933 12.9964C6.30022 12.5993 6.70542 12.361 7.1064 12.4571C8.53803 12.8457 10.0156 13.0391 11.499 13.0321C12.9824 13.0391 14.46 12.8457 15.8916 12.4571C16.2994 12.3428 16.7226 12.5807 16.8369 12.9885C16.9513 13.3962 16.7134 13.8195 16.3056 13.9338C15.6704 14.1097 15.0253 14.2476 14.3738 14.3468L15.0206 16.0985C15.0269 16.1019 15.0344 16.1019 15.0407 16.0985L21.4648 13.2505Z" fill="#A3B3AD"/>
</svg>
