<svg width="19" height="17" viewBox="0 0 19 17" fill="none" xmlns="http://www.w3.org/2000/svg">
<path fill-rule="evenodd" clip-rule="evenodd" d="M17.48 3.04H2.28C1.86026 3.04 1.52 2.69974 1.52 2.28C1.52 1.86026 1.86026 1.52 2.28 1.52H15.2C15.6197 1.52 15.96 1.17974 15.96 0.76C15.96 0.340263 15.6197 0 15.2 0H2.28C1.02079 0 0 1.02079 0 2.28V14.44C0 15.6992 1.02079 16.72 2.28 16.72H17.48C18.3195 16.72 19 16.0395 19 15.2V4.56C19 3.72053 18.3195 3.04 17.48 3.04ZM17.48 15.2H2.28C1.86026 15.2 1.52 14.8597 1.52 14.44V4.42985C1.76403 4.51636 2.02109 4.56038 2.28 4.56H17.48V15.2ZM12.92 9.5C12.92 8.87039 13.4304 8.36 14.06 8.36C14.6896 8.36 15.2 8.87039 15.2 9.5C15.2 10.1296 14.6896 10.64 14.06 10.64C13.4304 10.64 12.92 10.1296 12.92 9.5Z" fill="white"/>
</svg>
